# xmcd
#
# Track frame offsets: 
#        150
#        17881
#        40453
#        64629
#        75738
#        96344
#        124980
#        146497
#        165598
#        182001
#        196023
#        222232
#        237705
#        257492
#        287429
#
# Disc length: 4011 seconds
#
# Revision: 0
# Processed by: cddbd v1.5.1PL2 Copyright (c) Steve Scherf et al.
# Submitted via: ExactAudioCopy v0.95a5
#
DISCID=d60fa90f
DTITLE=Martijn Schok Boogie and Blues Band - Doing the Boogie Woogie
DYEAR=2004
DGENRE=Blues
TTITLE0=Doing the Boogie Woogie
TTITLE1=Touble in Mind
TTITLE2=Let The Good Times Roll
TTITLE3=Swing That Boogie
TTITLE4=When The Train Comes Back
TTITLE5=I Can't Sleep
TTITLE6=Let Me Go Home Whiskey
TTITLE7=The Tribute
TTITLE8=Detroit Shuffle
TTITLE9=Death Ray Bogie
TTITLE10=Nobody Knows When You're Down and Out
TTITLE11=Queen City Boogie Blues
TTITLE12=Walk On
TTITLE13=Fine And Mellow Blues
TTITLE14=Limo Ride
EXTD=
EXTT0=
EXTT1=
EXTT2=
EXTT3=
EXTT4=
EXTT5=
EXTT6=
EXTT7=
EXTT8=
EXTT9=
EXTT10=
EXTT11=
EXTT12=
EXTT13=
EXTT14=
PLAYORDER=
